<svg width="100" height="100" viewBox="0 0 100 100" fill="none" xmlns="http://www.w3.org/2000/svg">
<path d="M58.7976 31.1296L51.4817 26.862C50.7973 26.5174 50.0416 26.3379 49.2753 26.3379C48.509 26.3379 47.7534 26.5174 47.069 26.862L39.7531 31.1296C38.1854 32.0586 38.1564 33.5682 39.7531 34.4682L47.069 38.7938C47.7492 39.1523 48.5065 39.3397 49.2753 39.3397C50.0442 39.3397 50.8015 39.1523 51.4817 38.7938L58.7976 34.4682C59.1426 34.346 59.4413 34.1198 59.6526 33.8209C59.8638 33.522 59.9773 33.1649 59.9773 32.7989C59.9773 32.4328 59.8638 32.0758 59.6526 31.7769C59.4413 31.4779 59.1426 31.2518 58.7976 31.1296Z" fill="#4231C8"/>
<path d="M87.3393 25.846L51.9792 5.5241C51.2948 5.17949 50.5391 5 49.7728 5C49.0065 5 48.2509 5.17949 47.5665 5.5241L12.2064 25.846C11.5675 26.2708 11.0358 26.8379 10.653 27.5028C10.2701 28.1677 10.0466 28.9123 10 29.6781V70.3219C10.0466 71.0877 10.2701 71.8323 10.653 72.4972C11.0358 73.1621 11.5675 73.7292 12.2064 74.154L47.5665 94.4759C48.2509 94.8205 49.0065 95 49.7728 95C50.5391 95 51.2948 94.8205 51.9792 94.4759L87.3393 74.154C87.9782 73.7292 88.5099 73.1621 88.8927 72.4972C89.2755 71.8323 89.499 71.0877 89.5457 70.3219V29.6781C89.499 28.9123 89.2755 28.1677 88.8927 27.5028C88.5099 26.8379 87.9782 26.2708 87.3393 25.846ZM71.6043 35.2811L51.4857 47.1259C50.8055 47.4844 50.0482 47.6718 49.2793 47.6718C48.5104 47.6718 47.7531 47.4844 47.0729 47.1259L34.2992 39.6358C32.7315 38.6778 31.396 39.4326 31.396 41.2616V63.935C31.4511 64.2939 31.398 64.6611 31.2436 64.9897C31.0892 65.3184 30.8405 65.5936 30.5292 65.7805C30.2178 65.9673 29.8579 66.0572 29.4953 66.0387C29.1326 66.0203 28.7837 65.8943 28.4929 65.6769L26.3156 64.5447C25.6589 64.148 25.1093 63.5967 24.7146 62.9389C24.3199 62.281 24.0921 61.5366 24.0511 60.7706V36.1521C24.0978 35.3863 24.3213 34.6417 24.7041 33.9768C25.0869 33.3119 25.6186 32.7448 26.2575 32.32L47.0439 20.243C47.7283 19.8983 48.484 19.7189 49.2503 19.7189C50.0166 19.7189 50.7722 19.8983 51.4566 20.243L71.5753 31.8555C71.9547 31.9516 72.2916 32.1707 72.5333 32.4786C72.775 32.7865 72.9079 33.1657 72.9112 33.5571C72.9145 33.9485 72.788 34.33 72.5516 34.6419C72.3152 34.9538 71.9821 35.1786 71.6043 35.2811Z" fill="#4231C8"/>
</svg>
